<mxfile host="app.diagrams.net" agent="Mozilla/5.0 (X11; Ubuntu; Linux x86_64; rv:137.0) Gecko/20100101 Firefox/137.0" version="26.2.8">
  <diagram name="Page-1" id="JL4u2mxxelMSc-7fmqD8">
    <mxGraphModel dx="2513" dy="1225" grid="1" gridSize="5" guides="1" tooltips="1" connect="1" arrows="1" fold="1" page="1" pageScale="1" pageWidth="595" pageHeight="842" math="1" shadow="0">
      <root>
        <mxCell id="0" />
        <mxCell id="1" parent="0" />
        <mxCell id="rzx6ohKTUv5QluDNxmhI-7" value="$$X_L$$" style="strokeWidth=2;html=1;shape=mxgraph.flowchart.database;whiteSpace=wrap;fillColor=#CFE6CE;shadow=1;" parent="1" vertex="1">
          <mxGeometry x="-1480" y="-491" width="40" height="60" as="geometry" />
        </mxCell>
        <mxCell id="rzx6ohKTUv5QluDNxmhI-8" value="$$X_U$$" style="strokeWidth=2;html=1;shape=mxgraph.flowchart.database;whiteSpace=wrap;fillColor=#E1DFD2;shadow=1;" parent="1" vertex="1">
          <mxGeometry x="-1013" y="-504.5" width="90" height="87" as="geometry" />
        </mxCell>
        <mxCell id="rzx6ohKTUv5QluDNxmhI-9" value="" style="shape=mxgraph.cisco.people.androgenous_person;html=1;pointerEvents=1;dashed=0;fillColor=#000000;strokeColor=#ffffff;strokeWidth=2;verticalLabelPosition=bottom;verticalAlign=top;align=center;outlineConnect=0;shadow=1;" parent="1" vertex="1">
          <mxGeometry x="-1350" y="-372" width="69" height="82" as="geometry" />
        </mxCell>
        <mxCell id="rzx6ohKTUv5QluDNxmhI-10" value="" style="swimlane;rounded=1;fillColor=#B3B3B3;swimlaneLine=1;shadow=1;glass=0;swimlaneFillColor=none;gradientColor=none;whiteSpace=wrap;html=1;fontColor=default;labelBackgroundColor=none;labelBorderColor=none;textShadow=0;startSize=30;" parent="1" vertex="1">
          <mxGeometry x="-1188" y="-391" width="110" height="120" as="geometry">
            <mxRectangle x="-851" y="20" width="140" height="30" as="alternateBounds" />
          </mxGeometry>
        </mxCell>
        <mxCell id="rzx6ohKTUv5QluDNxmhI-11" value="" style="rounded=0;whiteSpace=wrap;html=1;" parent="rzx6ohKTUv5QluDNxmhI-10" vertex="1">
          <mxGeometry x="15" y="44" width="80" height="66" as="geometry" />
        </mxCell>
        <mxCell id="rzx6ohKTUv5QluDNxmhI-12" value="&lt;font style=&quot;font-size: 8px;&quot;&gt;$$\text{utilidad}$$&lt;/font&gt;" style="text;html=1;align=center;verticalAlign=middle;whiteSpace=wrap;rounded=0;" parent="rzx6ohKTUv5QluDNxmhI-10" vertex="1">
          <mxGeometry x="10" y="44" width="90" height="16" as="geometry" />
        </mxCell>
        <mxCell id="rzx6ohKTUv5QluDNxmhI-13" value="$$\text{Estrategia de}$$" style="text;html=1;align=center;verticalAlign=middle;whiteSpace=wrap;rounded=0;" parent="rzx6ohKTUv5QluDNxmhI-10" vertex="1">
          <mxGeometry x="20" width="60" height="20" as="geometry" />
        </mxCell>
        <mxCell id="rzx6ohKTUv5QluDNxmhI-14" value="$$\text{consulta}$$" style="text;html=1;align=center;verticalAlign=middle;whiteSpace=wrap;rounded=0;" parent="rzx6ohKTUv5QluDNxmhI-10" vertex="1">
          <mxGeometry x="20" y="13" width="60" height="20" as="geometry" />
        </mxCell>
        <mxCell id="rzx6ohKTUv5QluDNxmhI-15" value="$$u_1$$" style="text;html=1;align=center;verticalAlign=middle;whiteSpace=wrap;rounded=0;" parent="rzx6ohKTUv5QluDNxmhI-10" vertex="1">
          <mxGeometry x="46" y="55" width="18" height="11" as="geometry" />
        </mxCell>
        <mxCell id="rzx6ohKTUv5QluDNxmhI-16" value="$$u_2$$" style="text;html=1;align=center;verticalAlign=middle;whiteSpace=wrap;rounded=0;" parent="rzx6ohKTUv5QluDNxmhI-10" vertex="1">
          <mxGeometry x="46" y="66" width="18" height="11" as="geometry" />
        </mxCell>
        <mxCell id="rzx6ohKTUv5QluDNxmhI-17" value="&lt;font style=&quot;font-size: 10px;&quot;&gt;$$?$$&lt;/font&gt;" style="text;html=1;align=center;verticalAlign=middle;whiteSpace=wrap;rounded=0;" parent="rzx6ohKTUv5QluDNxmhI-10" vertex="1">
          <mxGeometry x="12" y="58" width="18" height="11" as="geometry" />
        </mxCell>
        <mxCell id="rzx6ohKTUv5QluDNxmhI-18" value="" style="endArrow=none;dashed=1;html=1;dashPattern=1 3;strokeWidth=2;rounded=0;" parent="rzx6ohKTUv5QluDNxmhI-10" edge="1">
          <mxGeometry width="50" height="50" relative="1" as="geometry">
            <mxPoint x="20.899999999999977" y="102" as="sourcePoint" />
            <mxPoint x="20.899999999999977" y="82" as="targetPoint" />
          </mxGeometry>
        </mxCell>
        <mxCell id="rzx6ohKTUv5QluDNxmhI-19" value="&lt;font style=&quot;font-size: 10px;&quot;&gt;$$?$$&lt;/font&gt;" style="text;html=1;align=center;verticalAlign=middle;whiteSpace=wrap;rounded=0;" parent="1" vertex="1">
          <mxGeometry x="-1176" y="-322" width="18" height="11" as="geometry" />
        </mxCell>
        <mxCell id="rzx6ohKTUv5QluDNxmhI-20" value="" style="endArrow=none;dashed=1;html=1;dashPattern=1 3;strokeWidth=2;rounded=0;" parent="1" edge="1">
          <mxGeometry width="50" height="50" relative="1" as="geometry">
            <mxPoint x="-1134.1" y="-289" as="sourcePoint" />
            <mxPoint x="-1134.1" y="-309" as="targetPoint" />
          </mxGeometry>
        </mxCell>
        <mxCell id="rzx6ohKTUv5QluDNxmhI-21" value="$$\text{Datos anotados}$$" style="text;html=1;align=center;verticalAlign=middle;whiteSpace=wrap;rounded=0;" parent="1" vertex="1">
          <mxGeometry x="-1490" y="-422" width="60" height="30" as="geometry" />
        </mxCell>
        <mxCell id="rzx6ohKTUv5QluDNxmhI-22" value="$$\text{Datos no anotados}$$" style="text;html=1;align=center;verticalAlign=middle;whiteSpace=wrap;rounded=0;" parent="1" vertex="1">
          <mxGeometry x="-998" y="-417.5" width="60" height="30" as="geometry" />
        </mxCell>
        <mxCell id="rzx6ohKTUv5QluDNxmhI-23" value="$$\text{Experto/anotador}$$" style="text;html=1;align=center;verticalAlign=middle;whiteSpace=wrap;rounded=0;" parent="1" vertex="1">
          <mxGeometry x="-1345" y="-271" width="60" height="30" as="geometry" />
        </mxCell>
        <mxCell id="rzx6ohKTUv5QluDNxmhI-24" value="" style="endArrow=open;html=1;rounded=0;exitX=0.5;exitY=1;exitDx=0;exitDy=0;curved=1;endFill=0;strokeWidth=2;" parent="1" source="rzx6ohKTUv5QluDNxmhI-22" edge="1">
          <mxGeometry width="50" height="50" relative="1" as="geometry">
            <mxPoint x="-926" y="-378.5" as="sourcePoint" />
            <mxPoint x="-1070" y="-320" as="targetPoint" />
            <Array as="points">
              <mxPoint x="-970" y="-320" />
            </Array>
          </mxGeometry>
        </mxCell>
        <mxCell id="rzx6ohKTUv5QluDNxmhI-25" value="" style="endArrow=open;html=1;rounded=0;entryX=0.5;entryY=1;entryDx=0;entryDy=0;exitX=0.01;exitY=0.5;exitDx=0;exitDy=0;exitPerimeter=0;strokeWidth=2;endFill=0;curved=1;" parent="1" target="rzx6ohKTUv5QluDNxmhI-21" edge="1">
          <mxGeometry width="50" height="50" relative="1" as="geometry">
            <mxPoint x="-1373.31" y="-323" as="sourcePoint" />
            <mxPoint x="-1464" y="-384" as="targetPoint" />
            <Array as="points">
              <mxPoint x="-1464" y="-323" />
            </Array>
          </mxGeometry>
        </mxCell>
        <mxCell id="rzx6ohKTUv5QluDNxmhI-26" value="" style="endArrow=open;html=1;rounded=0;endFill=0;strokeWidth=2;" parent="1" edge="1">
          <mxGeometry width="50" height="50" relative="1" as="geometry">
            <mxPoint x="-1200" y="-322" as="sourcePoint" />
            <mxPoint x="-1270" y="-322" as="targetPoint" />
          </mxGeometry>
        </mxCell>
        <mxCell id="rzx6ohKTUv5QluDNxmhI-27" value="" style="endArrow=open;html=1;rounded=0;exitX=0.5;exitY=0;exitDx=0;exitDy=0;exitPerimeter=0;strokeWidth=2;endFill=0;curved=1;" parent="1" edge="1">
          <mxGeometry width="50" height="50" relative="1" as="geometry">
            <mxPoint x="-1464" y="-493.99999999999994" as="sourcePoint" />
            <mxPoint x="-1360" y="-570" as="targetPoint" />
            <Array as="points">
              <mxPoint x="-1464" y="-569" />
            </Array>
          </mxGeometry>
        </mxCell>
        <mxCell id="rzx6ohKTUv5QluDNxmhI-28" value="" style="endArrow=open;html=1;rounded=0;strokeWidth=2;endFill=0;curved=1;" parent="1" edge="1">
          <mxGeometry width="50" height="50" relative="1" as="geometry">
            <mxPoint x="-1074" y="-570" as="sourcePoint" />
            <mxPoint x="-970" y="-510" as="targetPoint" />
            <Array as="points">
              <mxPoint x="-970" y="-570" />
            </Array>
          </mxGeometry>
        </mxCell>
        <mxCell id="rzx6ohKTUv5QluDNxmhI-29" value="$$\text{re-entrenamiento}$$" style="text;html=1;align=center;verticalAlign=middle;whiteSpace=wrap;rounded=0;" parent="1" vertex="1">
          <mxGeometry x="-1475" y="-596" width="60" height="30" as="geometry" />
        </mxCell>
        <mxCell id="rzx6ohKTUv5QluDNxmhI-30" value="$$\text{del modelo}$$" style="text;html=1;align=center;verticalAlign=middle;whiteSpace=wrap;rounded=0;" parent="1" vertex="1">
          <mxGeometry x="-1478" y="-582" width="60" height="30" as="geometry" />
        </mxCell>
        <mxCell id="rzx6ohKTUv5QluDNxmhI-31" value="$$\text{Predicción}$$" style="text;html=1;align=center;verticalAlign=middle;whiteSpace=wrap;rounded=0;" parent="1" vertex="1">
          <mxGeometry x="-1030" y="-596" width="60" height="30" as="geometry" />
        </mxCell>
        <mxCell id="rzx6ohKTUv5QluDNxmhI-32" value="$$\text{Selección de}$$" style="text;html=1;align=center;verticalAlign=middle;whiteSpace=wrap;rounded=0;" parent="1" vertex="1">
          <mxGeometry x="-1080" y="-271" width="60" height="30" as="geometry" />
        </mxCell>
        <mxCell id="rzx6ohKTUv5QluDNxmhI-33" value="$$\text{instancias}$$" style="text;html=1;align=center;verticalAlign=middle;whiteSpace=wrap;rounded=0;" parent="1" vertex="1">
          <mxGeometry x="-1081" y="-255" width="60" height="30" as="geometry" />
        </mxCell>
        <mxCell id="rzx6ohKTUv5QluDNxmhI-34" value="$$\langle\textbf{X}^{*},?\rangle$$" style="text;html=1;align=center;verticalAlign=middle;whiteSpace=wrap;rounded=0;" parent="1" vertex="1">
          <mxGeometry x="-1265.97" y="-352" width="60" height="30" as="geometry" />
        </mxCell>
        <mxCell id="rzx6ohKTUv5QluDNxmhI-35" value="$$\langle\textbf{X}^{*},y^{*}\rangle$$" style="text;html=1;align=center;verticalAlign=middle;whiteSpace=wrap;rounded=0;" parent="1" vertex="1">
          <mxGeometry x="-1430" y="-372" width="60" height="30" as="geometry" />
        </mxCell>
        <mxCell id="rzx6ohKTUv5QluDNxmhI-140" value="" style="shape=cube;whiteSpace=wrap;html=1;boundedLbl=1;backgroundOutline=1;darkOpacity=0.05;darkOpacity2=0.1;flipH=1;size=70;" parent="1" vertex="1">
          <mxGeometry x="-1354.5" y="-682.63" width="70" height="202.27" as="geometry" />
        </mxCell>
        <mxCell id="rzx6ohKTUv5QluDNxmhI-141" value="" style="shape=cube;whiteSpace=wrap;html=1;boundedLbl=1;backgroundOutline=1;darkOpacity=0.05;darkOpacity2=0.1;flipH=1;size=70;fillColor=#6B6B6B;strokeColor=#000000;" parent="1" vertex="1">
          <mxGeometry x="-1349.5" y="-682.63" width="70" height="202.2" as="geometry" />
        </mxCell>
        <mxCell id="rzx6ohKTUv5QluDNxmhI-142" value="" style="shape=cube;whiteSpace=wrap;html=1;boundedLbl=1;backgroundOutline=1;darkOpacity=0.05;darkOpacity2=0.1;flipH=1;size=70;" parent="1" vertex="1">
          <mxGeometry x="-1345.5" y="-682.63" width="70" height="202.2" as="geometry" />
        </mxCell>
        <mxCell id="rzx6ohKTUv5QluDNxmhI-143" value="" style="shape=cube;whiteSpace=wrap;html=1;boundedLbl=1;backgroundOutline=1;darkOpacity=0.05;darkOpacity2=0.1;flipH=1;size=70;fillColor=#6B6B6B;strokeColor=#000000;" parent="1" vertex="1">
          <mxGeometry x="-1339.5" y="-682.63" width="70" height="202.2" as="geometry" />
        </mxCell>
        <mxCell id="rzx6ohKTUv5QluDNxmhI-144" value="" style="shape=cube;whiteSpace=wrap;html=1;boundedLbl=1;backgroundOutline=1;darkOpacity=0.05;darkOpacity2=0.1;flipH=1;size=70;" parent="1" vertex="1">
          <mxGeometry x="-1334.5" y="-682.63" width="70" height="202.2" as="geometry" />
        </mxCell>
        <mxCell id="rzx6ohKTUv5QluDNxmhI-145" value="" style="shape=cube;whiteSpace=wrap;html=1;boundedLbl=1;backgroundOutline=1;darkOpacity=0.05;darkOpacity2=0.1;flipH=1;size=70;fillColor=#6B6B6B;strokeColor=#000000;" parent="1" vertex="1">
          <mxGeometry x="-1329.5" y="-682.63" width="70" height="203.27" as="geometry" />
        </mxCell>
        <mxCell id="rzx6ohKTUv5QluDNxmhI-148" value="" style="shape=cube;whiteSpace=wrap;html=1;boundedLbl=1;backgroundOutline=1;darkOpacity=0.05;darkOpacity2=0.1;flipH=1;size=70;" parent="1" vertex="1">
          <mxGeometry x="-1254.5" y="-641.24" width="37.06" height="120.55" as="geometry" />
        </mxCell>
        <mxCell id="rzx6ohKTUv5QluDNxmhI-149" value="" style="shape=cube;whiteSpace=wrap;html=1;boundedLbl=1;backgroundOutline=1;darkOpacity=0.05;darkOpacity2=0.1;flipH=1;size=70;fillColor=#6B6B6B;strokeColor=#000000;" parent="1" vertex="1">
          <mxGeometry x="-1249.91" y="-641.24" width="37.06" height="120.5" as="geometry" />
        </mxCell>
        <mxCell id="rzx6ohKTUv5QluDNxmhI-150" value="" style="shape=cube;whiteSpace=wrap;html=1;boundedLbl=1;backgroundOutline=1;darkOpacity=0.05;darkOpacity2=0.1;flipH=1;size=70;" parent="1" vertex="1">
          <mxGeometry x="-1245.32" y="-641.24" width="37.06" height="120.5" as="geometry" />
        </mxCell>
        <mxCell id="rzx6ohKTUv5QluDNxmhI-151" value="" style="shape=cube;whiteSpace=wrap;html=1;boundedLbl=1;backgroundOutline=1;darkOpacity=0.05;darkOpacity2=0.1;flipH=1;size=70;fillColor=#6B6B6B;strokeColor=#000000;" parent="1" vertex="1">
          <mxGeometry x="-1239.74" y="-641.24" width="37.06" height="120.5" as="geometry" />
        </mxCell>
        <mxCell id="rzx6ohKTUv5QluDNxmhI-152" value="" style="shape=cube;whiteSpace=wrap;html=1;boundedLbl=1;backgroundOutline=1;darkOpacity=0.05;darkOpacity2=0.1;flipH=1;size=70;" parent="1" vertex="1">
          <mxGeometry x="-1234.68" y="-641.24" width="37.06" height="120.5" as="geometry" />
        </mxCell>
        <mxCell id="rzx6ohKTUv5QluDNxmhI-153" value="" style="shape=cube;whiteSpace=wrap;html=1;boundedLbl=1;backgroundOutline=1;darkOpacity=0.05;darkOpacity2=0.1;flipH=1;size=70;fillColor=#6B6B6B;strokeColor=#000000;" parent="1" vertex="1">
          <mxGeometry x="-1230.56" y="-641.24" width="37.06" height="120.55" as="geometry" />
        </mxCell>
        <mxCell id="rzx6ohKTUv5QluDNxmhI-154" value="" style="shape=cube;whiteSpace=wrap;html=1;boundedLbl=1;backgroundOutline=1;darkOpacity=0.05;darkOpacity2=0.1;flipH=1;size=70;" parent="1" vertex="1">
          <mxGeometry x="-1226.68" y="-641.24" width="37.06" height="121.5" as="geometry" />
        </mxCell>
        <mxCell id="rzx6ohKTUv5QluDNxmhI-155" value="" style="shape=cube;whiteSpace=wrap;html=1;boundedLbl=1;backgroundOutline=1;darkOpacity=0.05;darkOpacity2=0.1;flipH=1;size=70;fillColor=#6B6B6B;strokeColor=#000000;" parent="1" vertex="1">
          <mxGeometry x="-1222.56" y="-641.24" width="37.06" height="121.55" as="geometry" />
        </mxCell>
        <mxCell id="rzx6ohKTUv5QluDNxmhI-156" value="" style="shape=cube;whiteSpace=wrap;html=1;boundedLbl=1;backgroundOutline=1;darkOpacity=0.05;darkOpacity2=0.1;flipH=1;size=70;" parent="1" vertex="1">
          <mxGeometry x="-1218.68" y="-641.24" width="37.06" height="121.5" as="geometry" />
        </mxCell>
        <mxCell id="rzx6ohKTUv5QluDNxmhI-157" value="" style="shape=cube;whiteSpace=wrap;html=1;boundedLbl=1;backgroundOutline=1;darkOpacity=0.05;darkOpacity2=0.1;flipH=1;size=70;fillColor=#6B6B6B;strokeColor=#000000;" parent="1" vertex="1">
          <mxGeometry x="-1213.56" y="-641.24" width="37.06" height="121.55" as="geometry" />
        </mxCell>
        <mxCell id="rzx6ohKTUv5QluDNxmhI-163" value="" style="group;rotation=0;fillColor=#6B6B6B;strokeColor=#000000;container=0;strokeWidth=2;" parent="1" vertex="1" connectable="0">
          <mxGeometry x="-1164.5" y="-641.78" width="30" height="120" as="geometry" />
        </mxCell>
        <mxCell id="rzx6ohKTUv5QluDNxmhI-168" value="" style="endArrow=none;html=1;rounded=0;entryX=0;entryY=0.5;entryDx=0;entryDy=0;exitX=1;exitY=0.5;exitDx=0;exitDy=0;" parent="1" source="rzx6ohKTUv5QluDNxmhI-177" target="rzx6ohKTUv5QluDNxmhI-160" edge="1">
          <mxGeometry width="50" height="50" relative="1" as="geometry">
            <mxPoint x="-1137.0000000000045" y="-496.13000000000005" as="sourcePoint" />
            <mxPoint x="-1116.2580025513676" y="-466.7734967190864" as="targetPoint" />
          </mxGeometry>
        </mxCell>
        <mxCell id="rzx6ohKTUv5QluDNxmhI-176" value="" style="endArrow=none;dashed=1;html=1;dashPattern=1 3;strokeWidth=2;rounded=0;" parent="1" edge="1">
          <mxGeometry width="50" height="50" relative="1" as="geometry">
            <mxPoint x="-1158.4978621357034" y="-563.0174557244206" as="sourcePoint" />
            <mxPoint x="-1138.5" y="-562.72" as="targetPoint" />
          </mxGeometry>
        </mxCell>
        <mxCell id="rzx6ohKTUv5QluDNxmhI-159" value="" style="rounded=0;whiteSpace=wrap;html=1;fillColor=#6B6B6B;strokeColor=#000000;rotation=0;strokeWidth=2;" parent="1" vertex="1">
          <mxGeometry x="-1112" y="-614.03" width="31" height="64.5" as="geometry" />
        </mxCell>
        <mxCell id="rzx6ohKTUv5QluDNxmhI-160" value="" style="ellipse;whiteSpace=wrap;html=1;aspect=fixed;fillColor=#C4C6C8;rotation=0;" parent="1" vertex="1">
          <mxGeometry x="-1107.4980025513673" y="-609.5334967190863" width="21" height="21" as="geometry" />
        </mxCell>
        <mxCell id="rzx6ohKTUv5QluDNxmhI-161" value="" style="ellipse;whiteSpace=wrap;html=1;aspect=fixed;fillColor=#C4C6C8;rotation=0;" parent="1" vertex="1">
          <mxGeometry x="-1107.9980025513673" y="-574.0934967190863" width="22" height="22" as="geometry" />
        </mxCell>
        <mxCell id="rzx6ohKTUv5QluDNxmhI-177" value="" style="ellipse;whiteSpace=wrap;html=1;aspect=fixed;fillColor=#C4C6C8;rotation=0;" parent="1" vertex="1">
          <mxGeometry x="-1160.4980025513673" y="-555.7834967190863" width="22" height="22" as="geometry" />
        </mxCell>
        <mxCell id="rzx6ohKTUv5QluDNxmhI-178" value="" style="ellipse;whiteSpace=wrap;html=1;aspect=fixed;fillColor=#C4C6C8;rotation=0;" parent="1" vertex="1">
          <mxGeometry x="-1160.4980025513673" y="-599.7834967190863" width="22" height="22" as="geometry" />
        </mxCell>
        <mxCell id="rzx6ohKTUv5QluDNxmhI-179" value="" style="ellipse;whiteSpace=wrap;html=1;aspect=fixed;fillColor=#C4C6C8;rotation=0;" parent="1" vertex="1">
          <mxGeometry x="-1160.4980025513673" y="-635.5934967190863" width="22" height="22" as="geometry" />
        </mxCell>
        <mxCell id="rzx6ohKTUv5QluDNxmhI-164" value="" style="endArrow=none;html=1;rounded=0;entryX=0;entryY=0.5;entryDx=0;entryDy=0;exitX=1;exitY=0.5;exitDx=0;exitDy=0;" parent="1" source="rzx6ohKTUv5QluDNxmhI-179" target="rzx6ohKTUv5QluDNxmhI-160" edge="1">
          <mxGeometry width="50" height="50" relative="1" as="geometry">
            <mxPoint x="-1137.0000000000045" y="-659.22" as="sourcePoint" />
            <mxPoint x="-1117.2580025513676" y="-666.7734967190863" as="targetPoint" />
          </mxGeometry>
        </mxCell>
        <mxCell id="rzx6ohKTUv5QluDNxmhI-165" value="" style="endArrow=none;html=1;rounded=0;entryX=0;entryY=0.5;entryDx=0;entryDy=0;exitX=1;exitY=0.5;exitDx=0;exitDy=0;" parent="1" source="rzx6ohKTUv5QluDNxmhI-179" target="rzx6ohKTUv5QluDNxmhI-161" edge="1">
          <mxGeometry width="50" height="50" relative="1" as="geometry">
            <mxPoint x="-1137.0000000000045" y="-659.22" as="sourcePoint" />
            <mxPoint x="-1091.2580025513676" y="-656.7734967190863" as="targetPoint" />
          </mxGeometry>
        </mxCell>
        <mxCell id="rzx6ohKTUv5QluDNxmhI-166" value="" style="endArrow=none;html=1;rounded=0;entryX=0;entryY=0.5;entryDx=0;entryDy=0;exitX=1;exitY=0.5;exitDx=0;exitDy=0;" parent="1" source="rzx6ohKTUv5QluDNxmhI-178" target="rzx6ohKTUv5QluDNxmhI-160" edge="1">
          <mxGeometry width="50" height="50" relative="1" as="geometry">
            <mxPoint x="-1137.0000000000045" y="-597.5" as="sourcePoint" />
            <mxPoint x="-1042.2580025513676" y="-547.7734967190863" as="targetPoint" />
          </mxGeometry>
        </mxCell>
        <mxCell id="rzx6ohKTUv5QluDNxmhI-167" value="" style="endArrow=none;html=1;rounded=0;entryX=0;entryY=0.5;entryDx=0;entryDy=0;exitX=1;exitY=0.5;exitDx=0;exitDy=0;" parent="1" source="rzx6ohKTUv5QluDNxmhI-178" target="rzx6ohKTUv5QluDNxmhI-161" edge="1">
          <mxGeometry width="50" height="50" relative="1" as="geometry">
            <mxPoint x="-1137.0000000000045" y="-597.5" as="sourcePoint" />
            <mxPoint x="-1022.2580025513674" y="-476.7734967190864" as="targetPoint" />
          </mxGeometry>
        </mxCell>
        <mxCell id="rzx6ohKTUv5QluDNxmhI-169" value="" style="endArrow=none;html=1;rounded=0;entryX=0;entryY=0.5;entryDx=0;entryDy=0;exitX=1;exitY=0.5;exitDx=0;exitDy=0;" parent="1" source="rzx6ohKTUv5QluDNxmhI-177" target="rzx6ohKTUv5QluDNxmhI-161" edge="1">
          <mxGeometry width="50" height="50" relative="1" as="geometry">
            <mxPoint x="-1137.0000000000045" y="-496.13000000000005" as="sourcePoint" />
            <mxPoint x="-1001.2580025513674" y="-456.7734967190864" as="targetPoint" />
          </mxGeometry>
        </mxCell>
        <mxCell id="rzx6ohKTUv5QluDNxmhI-180" value="" style="endArrow=none;dashed=1;html=1;dashPattern=1 3;strokeWidth=2;rounded=0;" parent="1" edge="1">
          <mxGeometry width="50" height="50" relative="1" as="geometry">
            <mxPoint x="-1105.4978621357034" y="-581.6674557244206" as="sourcePoint" />
            <mxPoint x="-1085.5" y="-581.37" as="targetPoint" />
          </mxGeometry>
        </mxCell>
        <mxCell id="rzx6ohKTUv5QluDNxmhI-182" value="$$\text{Extracción de}$$" style="text;html=1;align=center;verticalAlign=middle;whiteSpace=wrap;rounded=0;" parent="1" vertex="1">
          <mxGeometry x="-1299.74" y="-737" width="60" height="30" as="geometry" />
        </mxCell>
        <mxCell id="rzx6ohKTUv5QluDNxmhI-183" value="$$\text{características}$$" style="text;html=1;align=center;verticalAlign=middle;whiteSpace=wrap;rounded=0;" parent="1" vertex="1">
          <mxGeometry x="-1299.74" y="-723" width="60" height="30" as="geometry" />
        </mxCell>
        <mxCell id="rzx6ohKTUv5QluDNxmhI-184" value="" style="group;strokeColor=none;rounded=0;strokeWidth=1;perimeterSpacing=0;" parent="1" vertex="1" connectable="0">
          <mxGeometry x="-1360" y="-700" width="180" height="16" as="geometry" />
        </mxCell>
        <mxCell id="rzx6ohKTUv5QluDNxmhI-185" value="" style="endArrow=none;html=1;rounded=0;" parent="rzx6ohKTUv5QluDNxmhI-184" edge="1">
          <mxGeometry width="50" height="50" relative="1" as="geometry">
            <mxPoint as="sourcePoint" />
            <mxPoint x="180" as="targetPoint" />
          </mxGeometry>
        </mxCell>
        <mxCell id="rzx6ohKTUv5QluDNxmhI-186" value="" style="endArrow=none;html=1;rounded=0;" parent="rzx6ohKTUv5QluDNxmhI-184" edge="1">
          <mxGeometry width="50" height="50" relative="1" as="geometry">
            <mxPoint y="16" as="sourcePoint" />
            <mxPoint as="targetPoint" />
          </mxGeometry>
        </mxCell>
        <mxCell id="rzx6ohKTUv5QluDNxmhI-187" value="" style="endArrow=none;html=1;rounded=0;" parent="rzx6ohKTUv5QluDNxmhI-184" edge="1">
          <mxGeometry width="50" height="50" relative="1" as="geometry">
            <mxPoint x="180" y="16" as="sourcePoint" />
            <mxPoint x="180" as="targetPoint" />
          </mxGeometry>
        </mxCell>
        <mxCell id="rzx6ohKTUv5QluDNxmhI-195" value="$$\text{Clasificación}$$" style="text;html=1;align=center;verticalAlign=middle;whiteSpace=wrap;rounded=0;" parent="1" vertex="1">
          <mxGeometry x="-1146" y="-730" width="60" height="30" as="geometry" />
        </mxCell>
        <mxCell id="rzx6ohKTUv5QluDNxmhI-196" value="" style="group;strokeColor=none;rounded=0;strokeWidth=1;perimeterSpacing=0;" parent="1" vertex="1" connectable="0">
          <mxGeometry x="-1170" y="-700" width="100" height="16" as="geometry" />
        </mxCell>
        <mxCell id="rzx6ohKTUv5QluDNxmhI-197" value="" style="endArrow=none;html=1;rounded=0;" parent="rzx6ohKTUv5QluDNxmhI-196" edge="1">
          <mxGeometry width="50" height="50" relative="1" as="geometry">
            <mxPoint as="sourcePoint" />
            <mxPoint x="100" as="targetPoint" />
          </mxGeometry>
        </mxCell>
        <mxCell id="rzx6ohKTUv5QluDNxmhI-198" value="" style="endArrow=none;html=1;rounded=0;" parent="rzx6ohKTUv5QluDNxmhI-196" edge="1">
          <mxGeometry width="50" height="50" relative="1" as="geometry">
            <mxPoint y="16" as="sourcePoint" />
            <mxPoint as="targetPoint" />
          </mxGeometry>
        </mxCell>
        <mxCell id="rzx6ohKTUv5QluDNxmhI-199" value="" style="endArrow=none;html=1;rounded=0;" parent="rzx6ohKTUv5QluDNxmhI-196" edge="1">
          <mxGeometry width="50" height="50" relative="1" as="geometry">
            <mxPoint x="100" y="16" as="sourcePoint" />
            <mxPoint x="100" as="targetPoint" />
          </mxGeometry>
        </mxCell>
        <mxCell id="bEdzFMG7vRe1HbjhC_lK-17" value="" style="endArrow=none;html=1;rounded=0;exitX=0.507;exitY=0.505;exitDx=0;exitDy=0;exitPerimeter=0;" edge="1" parent="1" source="rzx6ohKTUv5QluDNxmhI-145">
          <mxGeometry width="50" height="50" relative="1" as="geometry">
            <mxPoint x="-1345" y="-550" as="sourcePoint" />
            <mxPoint x="-1295" y="-600" as="targetPoint" />
          </mxGeometry>
        </mxCell>
        <mxCell id="bEdzFMG7vRe1HbjhC_lK-18" value="" style="endArrow=none;html=1;rounded=0;" edge="1" parent="1">
          <mxGeometry width="50" height="50" relative="1" as="geometry">
            <mxPoint x="-1295" y="-600" as="sourcePoint" />
            <mxPoint x="-1285" y="-610" as="targetPoint" />
          </mxGeometry>
        </mxCell>
        <mxCell id="bEdzFMG7vRe1HbjhC_lK-19" value="" style="endArrow=none;html=1;rounded=0;exitX=0.507;exitY=0.505;exitDx=0;exitDy=0;exitPerimeter=0;" edge="1" parent="1">
          <mxGeometry width="50" height="50" relative="1" as="geometry">
            <mxPoint x="-1284.5" y="-589.53" as="sourcePoint" />
            <mxPoint x="-1284.5" y="-609.53" as="targetPoint" />
          </mxGeometry>
        </mxCell>
        <mxCell id="bEdzFMG7vRe1HbjhC_lK-23" value="" style="endArrow=none;html=1;rounded=0;exitX=0.507;exitY=0.505;exitDx=0;exitDy=0;exitPerimeter=0;" edge="1" parent="1">
          <mxGeometry width="50" height="50" relative="1" as="geometry">
            <mxPoint x="-1291" y="-584" as="sourcePoint" />
            <mxPoint x="-1291" y="-604" as="targetPoint" />
          </mxGeometry>
        </mxCell>
        <mxCell id="bEdzFMG7vRe1HbjhC_lK-24" value="" style="endArrow=none;html=1;rounded=0;exitX=0.507;exitY=0.505;exitDx=0;exitDy=0;exitPerimeter=0;" edge="1" parent="1">
          <mxGeometry width="50" height="50" relative="1" as="geometry">
            <mxPoint x="-1287" y="-588" as="sourcePoint" />
            <mxPoint x="-1287" y="-608" as="targetPoint" />
          </mxGeometry>
        </mxCell>
        <mxCell id="bEdzFMG7vRe1HbjhC_lK-26" value="" style="endArrow=none;html=1;rounded=0;" edge="1" parent="1">
          <mxGeometry width="50" height="50" relative="1" as="geometry">
            <mxPoint x="-1294.5" y="-594.03" as="sourcePoint" />
            <mxPoint x="-1284.5" y="-604.03" as="targetPoint" />
          </mxGeometry>
        </mxCell>
        <mxCell id="bEdzFMG7vRe1HbjhC_lK-27" value="" style="endArrow=none;html=1;rounded=0;" edge="1" parent="1">
          <mxGeometry width="50" height="50" relative="1" as="geometry">
            <mxPoint x="-1294.5" y="-586.53" as="sourcePoint" />
            <mxPoint x="-1284.5" y="-596.53" as="targetPoint" />
          </mxGeometry>
        </mxCell>
        <mxCell id="bEdzFMG7vRe1HbjhC_lK-28" value="" style="endArrow=none;html=1;rounded=0;" edge="1" parent="1">
          <mxGeometry width="50" height="50" relative="1" as="geometry">
            <mxPoint x="-1294.5" y="-580" as="sourcePoint" />
            <mxPoint x="-1284.5" y="-590" as="targetPoint" />
          </mxGeometry>
        </mxCell>
        <mxCell id="bEdzFMG7vRe1HbjhC_lK-29" value="" style="endArrow=none;dashed=1;html=1;dashPattern=1 3;strokeWidth=1;rounded=0;entryX=1.024;entryY=0.445;entryDx=0;entryDy=0;entryPerimeter=0;" edge="1" parent="1" target="rzx6ohKTUv5QluDNxmhI-148">
          <mxGeometry width="50" height="50" relative="1" as="geometry">
            <mxPoint x="-1285" y="-610" as="sourcePoint" />
            <mxPoint x="-1240" y="-630" as="targetPoint" />
          </mxGeometry>
        </mxCell>
        <mxCell id="bEdzFMG7vRe1HbjhC_lK-30" value="" style="endArrow=none;dashed=1;html=1;dashPattern=1 3;strokeWidth=1;rounded=0;entryX=1.022;entryY=0.439;entryDx=0;entryDy=0;entryPerimeter=0;" edge="1" parent="1" target="rzx6ohKTUv5QluDNxmhI-148">
          <mxGeometry width="50" height="50" relative="1" as="geometry">
            <mxPoint x="-1295" y="-600" as="sourcePoint" />
            <mxPoint x="-1255" y="-585" as="targetPoint" />
          </mxGeometry>
        </mxCell>
        <mxCell id="bEdzFMG7vRe1HbjhC_lK-31" value="" style="endArrow=none;dashed=1;html=1;dashPattern=1 3;strokeWidth=1;rounded=0;exitX=1.022;exitY=0.453;exitDx=0;exitDy=0;exitPerimeter=0;" edge="1" parent="1" source="rzx6ohKTUv5QluDNxmhI-148">
          <mxGeometry width="50" height="50" relative="1" as="geometry">
            <mxPoint x="-1325" y="-530" as="sourcePoint" />
            <mxPoint x="-1295" y="-580" as="targetPoint" />
          </mxGeometry>
        </mxCell>
        <mxCell id="bEdzFMG7vRe1HbjhC_lK-32" value="" style="endArrow=none;dashed=1;html=1;dashPattern=1 3;strokeWidth=1;rounded=0;entryX=1.026;entryY=0.446;entryDx=0;entryDy=0;entryPerimeter=0;" edge="1" parent="1" target="rzx6ohKTUv5QluDNxmhI-148">
          <mxGeometry width="50" height="50" relative="1" as="geometry">
            <mxPoint x="-1285" y="-590" as="sourcePoint" />
            <mxPoint x="-1255" y="-585" as="targetPoint" />
          </mxGeometry>
        </mxCell>
      </root>
    </mxGraphModel>
  </diagram>
</mxfile>
